<svg width="33" height="44" viewBox="0 0 33 44" fill="none" xmlns="http://www.w3.org/2000/svg">
<g clip-path="url(#clip0_66703_46)">
<rect width="33" height="44" fill="white"/>
<path d="M0 0H76V44H0V0Z" fill="#181818"/>
<path fill-rule="evenodd" clip-rule="evenodd" d="M38.2538 13.1545C39.7682 13.1545 41.1385 13.5359 42.3649 14.2907C43.5913 15.0508 44.5618 16.1247 45.2763 17.5205C45.9908 18.9164 46.3481 20.534 46.3481 22.3735C46.3481 24.213 45.9908 25.8415 45.2763 27.2589C44.5618 28.6764 43.5913 29.7747 42.3649 30.5538C41.1385 31.3328 39.7682 31.7224 38.2538 31.7224C36.9528 31.7224 35.8064 31.4519 34.8146 30.9108C33.8228 30.3698 33.0176 29.6881 32.3991 28.8658V40H27.92V13.4467H32.3991V16.0436C32.975 15.2239 33.7695 14.5341 34.7826 13.9823C35.7957 13.4304 36.9528 13.1545 38.2538 13.1545ZM56.074 13.1545C57.759 13.1545 59.268 13.5224 60.601 14.2582C61.9341 14.994 62.9685 16.0382 63.7044 17.3907C64.4402 18.7433 64.8081 20.296 64.8081 22.0489C64.8081 22.6981 64.7655 23.2824 64.6802 23.8018H51.7229C51.8296 25.1003 52.2775 26.1174 53.0666 26.8532C53.8558 27.589 54.8263 27.9569 55.978 27.9569C57.6417 27.9569 58.8254 27.2319 59.5293 25.7819H64.3602C63.8483 27.5132 62.8672 28.9361 61.4169 30.0506C59.9665 31.1678 58.1855 31.7224 56.074 31.7224C54.3677 31.7224 52.8374 31.3382 51.483 30.57C50.1286 29.8017 49.0728 28.7143 48.3157 27.3076C47.5585 25.901 47.1799 24.2779 47.1799 22.4384C47.1799 20.58 47.5532 18.9461 48.2997 17.5368C49.0462 16.1301 50.0913 15.0508 51.435 14.2907C52.7787 13.5359 54.325 13.1545 56.074 13.1545ZM126.266 13.1545C127.951 13.1545 129.46 13.5224 130.793 14.2582C132.126 14.994 133.16 16.0382 133.896 17.3907C134.632 18.7433 135 20.296 135 22.0489C135 22.6981 134.957 23.2824 134.872 23.8018H121.915C122.021 25.1003 122.469 26.1174 123.259 26.8532C124.048 27.589 125.018 27.9569 126.17 27.9569C127.834 27.9569 129.017 27.2319 129.721 25.7819H134.552C134.04 27.5132 133.059 28.9361 131.609 30.0506C130.158 31.1678 128.377 31.7224 126.266 31.7224C124.56 31.7224 123.029 31.3382 121.675 30.57C120.32 29.8017 119.265 28.7143 118.508 27.3076C117.75 25.901 117.372 24.2779 117.372 22.4384C117.372 20.58 117.745 18.9461 118.492 17.5368C119.238 16.1301 120.283 15.0508 121.627 14.2907C122.971 13.5359 124.517 13.1545 126.266 13.1545ZM11.4257 25.3326L19.6639 30.1748C19.344 30.4453 18.9708 30.6887 18.5709 30.9052C17.5577 31.4462 16.3847 31.7167 15.0516 31.7167C13.7452 31.7167 12.5188 31.4191 11.4257 30.797V25.3326ZM93.2484 13.4475V23.3482C93.2484 24.7765 93.6004 25.8747 94.3042 26.643C95.008 27.4112 95.9678 27.7954 97.1836 27.7954C98.4206 27.7954 99.3911 27.4112 100.095 26.643C100.799 25.8747 101.151 24.7765 101.151 23.3482V13.4475H105.662V31.431H101.151V29.1587C100.575 29.9378 99.823 30.5492 98.8952 30.9928C97.9674 31.4364 96.9596 31.6583 95.8719 31.6583C94.4855 31.6583 93.2591 31.3607 92.1926 30.7656C91.1262 30.1704 90.2891 29.294 89.6812 28.1362C89.0733 26.9784 88.7694 25.5988 88.7694 23.9974V13.4475H93.2484ZM76.0697 13.188V17.9599H74.886C73.4783 17.9599 72.4172 18.2953 71.7027 18.9662C70.9881 19.637 70.6309 20.8056 70.6309 22.472V31.4313H66.1518V13.4477H70.6309V16.2394C71.2068 15.2872 71.9586 14.5406 72.8864 13.9996C73.8142 13.4586 74.8753 13.188 76.0697 13.188ZM117.436 13.188V17.9599H116.252C114.844 17.9599 113.783 18.2953 113.069 18.9662C112.354 19.637 111.997 20.8056 111.997 22.472V31.4313H107.518V13.4477H111.997V16.2394C112.573 15.2872 113.325 14.5406 114.252 13.9996C115.18 13.4586 116.241 13.188 117.436 13.188ZM83.6524 9V13.4472H87.6195V17.1802H83.6524V25.8799C83.6524 26.4858 83.7963 26.924 84.0843 27.1946C84.3722 27.4651 84.8574 27.6003 85.5399 27.6003H87.6195V31.4308H84.8041C81.0289 31.4308 79.1413 29.5696 79.1413 25.8474V17.1802H77.0298V13.4472H79.1413V9H83.6524ZM25.4494 21.572V31.4186H20.9437V28.7946C20.7304 29.1192 20.4904 29.4168 20.1972 29.6873L15.8781 27.1716L25.4494 21.572ZM10.7592 20.5167V30.3904C9.63943 29.6329 8.73296 28.605 8.06644 27.2524C7.39991 25.9269 7.05332 24.4121 7 22.7079L10.7592 20.5167ZM37.0701 17.1472C36.2596 17.1472 35.4971 17.3582 34.7826 17.7802C34.0681 18.2022 33.4922 18.8136 33.0549 19.6143C32.6177 20.415 32.3991 21.3564 32.3991 22.4384C32.3991 23.5205 32.6177 24.4646 33.0549 25.2626C33.4922 26.0633 34.0681 26.6746 34.7826 27.0966C35.4971 27.5186 36.2596 27.7296 37.0701 27.7296C37.9019 27.7296 38.6751 27.5132 39.3896 27.0804C40.1041 26.6476 40.68 26.0308 41.1172 25.2301C41.5545 24.4294 41.7731 23.4772 41.7731 22.3735C41.7731 21.2915 41.5545 20.3555 41.1172 19.5656C40.68 18.7757 40.1041 18.1752 39.3896 17.764C38.6751 17.3528 37.9019 17.1472 37.0701 17.1472ZM25.4488 13.4567V20.7875L19.6634 24.1689V14.701C20.17 15.0797 20.5965 15.5125 20.9431 15.9995V13.4567H25.4488ZM10.0927 14.9177L14.545 17.5146L7.02666 21.9239C7.05332 20.2738 7.39991 18.8131 8.06644 17.5417C8.59966 16.4867 9.29284 15.621 10.0927 14.9177ZM55.946 16.8876C54.8369 16.8876 53.9038 17.2284 53.1466 17.9101C52.3895 18.5918 51.9256 19.5386 51.7549 20.7505H60.1691C60.1478 19.5818 59.7319 18.6459 58.9214 17.9425C58.1109 17.2392 57.1191 16.8876 55.946 16.8876ZM126.138 16.8876C125.029 16.8876 124.096 17.2284 123.339 17.9101C122.581 18.5918 122.117 19.5386 121.947 20.7505H130.361C130.34 19.5818 129.924 18.6459 129.113 17.9425C128.303 17.2392 127.311 16.8876 126.138 16.8876ZM15.1044 13.1594C16.4108 13.1594 17.5572 13.4299 18.5703 13.9709C18.7036 14.0521 18.8636 14.1332 18.9969 14.2414V19.3541L10.7053 14.4849C10.7853 14.4037 10.892 14.3496 10.9719 14.2955C12.1984 13.5381 13.5847 13.1594 15.1044 13.1594Z" fill="white"/>
<path d="M26 0H34V44H26V0Z" fill="#181818"/>
</g>
<defs>
<clipPath id="clip0_66703_46">
<rect width="33" height="44" fill="white"/>
</clipPath>
</defs>
</svg>
