<svg width="32" height="10" viewBox="0 0 32 10" fill="none" xmlns="http://www.w3.org/2000/svg">
<path d="M32 0H0V10H32V0Z" fill="#6D8892"/>
<mask id="mask0_348_76" style="mask-type:luminance" maskUnits="userSpaceOnUse" x="0" y="0" width="32" height="10">
<path d="M31.4286 0.714294H0.571411V9.28572H31.4286V0.714294Z" fill="white"/>
</mask>
<g mask="url(#mask0_348_76)">
<path d="M0.845703 8.92857H3.38742V8.76857C2.47313 8.62 2.19885 8.14 2.19885 6.98572V1.74H2.2537L4.63085 8.94H4.95999L7.09027 1.74H7.13599V8.11715C7.13599 8.57429 6.90742 8.73429 6.25827 8.76857V8.92857H9.41256V8.76857C8.64456 8.73429 8.4617 8.55143 8.4617 8.11715V1.77429C8.4617 1.34 8.64456 1.14572 9.41256 1.11143V0.96286H7.08113L5.35313 6.83715H5.30742L3.42399 0.96286H0.845703V1.11143C1.63199 1.13429 1.97027 1.66 1.97027 2.34572V6.98572C1.97027 8.14 1.70513 8.63143 0.845703 8.76857V8.92857Z" fill="white"/>
<path d="M15.4651 9.05429H15.904V2.89429C15.904 1.76286 16.1508 1.27143 17.0102 1.11143V0.96286H14.4137V1.11143C15.3371 1.24857 15.6754 1.76286 15.6754 2.89429V6.68858H15.6662L12.1462 0.96286H9.98853V1.11143C10.7748 1.15715 11.1131 1.74 11.1131 2.43715V6.98572C11.1131 8.14 10.848 8.63143 9.98853 8.76857V8.92858H12.5668V8.76857C11.6342 8.64286 11.3417 8.14 11.3417 6.98572V2.40286H11.3508L15.4651 9.05429Z" fill="white"/>
<path d="M18.7429 8.92857H22.1989V8.76857C21.3852 8.74572 21.1383 8.55143 21.1383 8.11715V1.16857H21.3577C22.0617 1.16857 22.6103 2.04857 23.2503 3.60286L23.3874 3.58L23.3417 0.96286H17.5909L17.536 3.58L17.6732 3.60286C18.3223 2.01429 18.88 1.16857 19.5749 1.16857H19.8034V8.11715C19.8034 8.55143 19.5474 8.74572 18.7429 8.76857V8.92857Z" fill="white"/>
<path d="M29.7509 9.05429H30.1897V2.89429C30.1897 1.76286 30.4366 1.27143 31.296 1.11143V0.96286H28.6994V1.11143C29.6229 1.24857 29.9611 1.76286 29.9611 2.89429V6.68858H29.952L26.432 0.96286H24.2743V1.11143C25.0606 1.15715 25.3989 1.74 25.3989 2.43715V6.98572C25.3989 8.14 25.1337 8.63143 24.2743 8.76857V8.92858H26.8526V8.76857C25.92 8.64286 25.6274 8.14 25.6274 6.98572V2.40286H25.6366L29.7509 9.05429Z" fill="white"/>
</g>
</svg>
